# Blender v2.91.0 OBJ File: 'grass_cube.blend'
# www.blender.org
mtllib grass_cube.mtl
o Cube
v 1.000000 1.000000 -1.000000
v 1.000000 -1.000000 -1.000000
v 1.000000 1.000000 1.000000
v 1.000000 -1.000000 1.000000
v -1.000000 1.000000 -1.000000
v -1.000000 -1.000000 -1.000000
v -1.000000 1.000000 1.000000
v -1.000000 -1.000000 1.000000
vt 0.166694 0.000041
vt 0.000041 0.999959
vt 0.000041 0.000041
vt 0.333374 0.999959
vt 0.500027 0.000041
vt 0.333374 0.000041
vt 0.833361 0.999959
vt 0.666708 0.000041
vt 0.833361 0.000041
vt 1.000027 0.000041
vt 0.833374 0.999959
vt 0.833374 0.000041
vt 0.166708 0.999959
vt 0.166708 0.000041
vt 0.666694 0.999959
vt 0.500041 0.000041
vt 0.166694 0.999959
vt 0.500027 0.999959
vt 1.000027 0.999959
vt 0.500041 0.999959
vn 0.0000 1.0000 0.0000
vn 0.0000 0.0000 1.0000
vn -1.0000 0.0000 0.0000
vn 0.0000 -1.0000 0.0000
vn 1.0000 0.0000 0.0000
vn 0.0000 0.0000 -1.0000
usemtl Material
s off
f 5/1/1 3/2/1 1/3/1
f 3/4/2 8/5/2 4/6/2
f 7/7/3 6/8/3 8/9/3
f 2/10/4 8/11/4 6/12/4
f 1/13/5 4/6/5 2/14/5
f 5/15/6 2/16/6 6/8/6
f 5/1/1 7/17/1 3/2/1
f 3/4/2 7/18/2 8/5/2
f 7/7/3 5/15/3 6/8/3
f 2/10/4 4/19/4 8/11/4
f 1/13/5 3/4/5 4/6/5
f 5/15/6 1/20/6 2/16/6
